<?xml version="1.0" standalone="no"?>
<!DOCTYPE svg PUBLIC "-//W3C//DTD SVG 20010904//EN"
 "http://www.w3.org/TR/2001/REC-SVG-20010904/DTD/svg10.dtd">
<svg version="1.0" xmlns="http://www.w3.org/2000/svg"
 width="700.000000pt" height="700.000000pt" viewBox="0 0 700.000000 700.000000"
 preserveAspectRatio="xMidYMid meet">
<metadata>
Created by potrace 1.14, written by Peter Selinger 2001-2017
</metadata>
<g transform="translate(0.000000,700.000000) scale(0.100000,-0.100000)"
fill="#000000" stroke="none">
<path d="M2927 6344 c-1 -1 -45 -5 -97 -8 -166 -11 -314 -34 -475 -76 -110
-28 -252 -73 -290 -90 -11 -5 -44 -18 -72 -30 -162 -62 -443 -220 -594 -335
-491 -373 -833 -855 -1030 -1450 -25 -75 -88 -316 -95 -364 -3 -20 -7 -43 -9
-51 -2 -8 -7 -37 -11 -65 -3 -27 -8 -58 -10 -68 -19 -100 -26 -518 -12 -682
23 -266 112 -638 205 -855 8 -19 19 -44 24 -55 53 -125 81 -175 113 -203 44
-38 73 -47 133 -38 58 8 105 43 132 99 35 73 31 97 -49 277 -83 186 -151 426
-195 685 -13 79 -20 196 -20 365 0 161 10 354 20 370 2 3 6 29 10 59 27 217
130 542 243 766 280 561 744 992 1305 1214 171 68 413 130 572 146 33 3 71 8
85 11 39 7 327 6 400 -1 60 -6 204 -27 275 -40 100 -19 239 -61 365 -110 76
-29 105 -36 145 -33 152 12 214 207 102 319 -61 60 -477 187 -702 214 -27 4
-57 8 -65 10 -34 9 -395 26 -403 19z"/>
<path d="M6575 6337 c-172 -55 -598 -264 -865 -425 -103 -62 -322 -202 -330
-212 -3 -3 -21 -17 -40 -30 -128 -87 -380 -286 -525 -414 -110 -97 -431 -419
-500 -501 -27 -33 -58 -69 -68 -80 -122 -133 -507 -660 -507 -694 0 -5 -4 -11
-8 -13 -8 -3 -13 -11 -110 -178 -136 -234 -291 -560 -386 -810 -26 -69 -51
-134 -56 -145 -25 -58 -140 -432 -140 -454 0 -10 -6 -7 -17 9 -20 30 -185 231
-230 280 -17 19 -41 46 -53 60 -123 143 -497 490 -573 533 -87 48 -197 -19
-197 -121 0 -44 6 -54 124 -212 236 -313 432 -652 583 -1005 53 -123 123 -306
163 -428 23 -71 23 -81 5 -342 -1 -22 12 -96 29 -165 42 -170 52 -179 246
-242 333 -107 348 -109 423 -56 53 37 60 68 63 248 2 181 13 445 19 482 2 13
6 57 10 98 3 41 7 86 9 100 3 14 7 50 11 81 3 31 7 65 9 75 2 11 7 39 10 64 3
25 8 56 11 70 2 13 7 42 11 65 3 22 12 67 19 100 8 33 17 76 20 95 3 19 22 98
41 175 20 77 37 147 39 155 8 36 96 311 120 375 15 39 35 93 44 120 116 323
378 831 574 1115 21 30 50 73 64 95 27 41 228 311 247 331 6 7 27 31 46 55 88
109 187 217 349 379 202 202 250 246 381 355 52 44 97 82 100 85 3 3 66 52
140 107 243 182 485 337 751 482 120 66 153 108 146 188 -8 105 -109 180 -202
150z"/>
</g>
</svg>
