<svg width="45" height="45" viewBox="0 0 45 45" fill="none" xmlns="http://www.w3.org/2000/svg">
<path fill-rule="evenodd" clip-rule="evenodd" d="M12.9458 0.878906H26.7104V4.76763C26.7104 5.85659 27.5949 6.74112 28.6838 6.74112H32.5726V25.8703C32.5726 26.1559 32.3397 26.3888 32.0541 26.3888H12.9458C12.6602 26.3888 12.4273 26.1559 12.4273 25.8703V1.39737C12.4273 1.11182 12.6602 0.878906 12.9458 0.878906ZM28.4247 0.923906V4.76771C28.4247 4.91054 28.5411 5.0269 28.6839 5.0269H32.5277C32.5026 4.97188 32.4669 4.92117 32.4208 4.87503L28.5765 1.03078C28.5304 0.984639 28.4797 0.949043 28.4247 0.923906ZM27.6879 15.8309H17.312C16.931 15.8309 16.6221 16.1399 16.6221 16.5209C16.6221 16.9019 16.931 17.2108 17.312 17.2108H27.6879C28.0689 17.2108 28.3778 16.9018 28.3778 16.5209C28.3778 16.1399 28.0689 15.8309 27.6879 15.8309ZM27.6879 22.1425H17.312C16.931 22.1425 16.6221 22.4514 16.6221 22.8323C16.6221 23.2133 16.931 23.5223 17.312 23.5223H27.6879C28.0689 23.5223 28.3778 23.2133 28.3778 22.8323C28.3778 22.4514 28.0689 22.1425 27.6879 22.1425ZM27.6879 18.9867H17.312C16.931 18.9867 16.6221 19.2956 16.6221 19.6766C16.6221 20.0576 16.931 20.3665 17.312 20.3665H27.6879C28.0689 20.3665 28.3778 20.0576 28.3778 19.6766C28.3778 19.2957 28.0689 18.9867 27.6879 18.9867ZM21.3097 5.24188C21.1669 5.24188 21.0505 5.35834 21.0505 5.50107V7.42184H19.1297C18.987 7.42184 18.8705 7.53829 18.8705 7.68111V10.0616C18.8705 10.2045 18.987 10.3209 19.1297 10.3209H21.0505V12.2417C21.0505 12.3844 21.1669 12.5009 21.3097 12.5009H23.6902C23.833 12.5009 23.9494 12.3844 23.9494 12.2417V10.3209H25.8702C26.013 10.3209 26.1295 10.2045 26.1295 10.0616V7.68111C26.1295 7.53829 26.013 7.42184 25.8702 7.42184H23.9494V5.50116C23.9494 5.35834 23.833 5.24197 23.6902 5.24197L21.3097 5.24188ZM12.7926 44.1211H32.1707C32.7624 44.1211 33.2421 43.6414 33.2421 43.0497C33.2421 42.458 32.7624 41.9783 32.1707 41.9783H28.0419C27.7316 40.3471 27.5811 38.5417 27.7171 36.9217H40.5579C42.23 36.9217 43.5854 35.5663 43.5854 33.8943V30.3963V9.68704C43.5854 8.01492 42.23 6.65956 40.558 6.65956H34.287V8.54525H40.558C41.1893 8.54525 41.6997 9.05572 41.6997 9.68704V30.3962H3.30024C3.30024 23.9538 3.30024 16.1293 3.30024 9.68704C3.30024 9.05572 3.81071 8.54525 4.44203 8.54525H10.713V6.65956H4.44203C2.76991 6.65956 1.41455 8.01492 1.41455 9.68704V33.8943C1.41455 35.5664 2.76991 36.9217 4.44203 36.9217H17.1859C17.325 38.5416 17.1968 40.3471 16.9091 41.9783H12.7925C12.2008 41.9783 11.7211 42.458 11.7211 43.0497C11.7211 43.6414 12.2008 44.1211 12.7926 44.1211Z" fill="#BCF1EB"/>
</svg>
