<svg width="45" height="45" viewBox="0 0 45 45" fill="none" xmlns="http://www.w3.org/2000/svg">
<g clip-path="url(#clip0_199_1600)">
<path d="M15.8036 35.2799L9.09015 38.9419C8.69619 39.1567 8.34213 39.4208 8.0127 39.7086C11.9268 43.0089 16.9796 44.9999 22.5001 44.9999C27.98 44.9999 33.0004 43.0386 36.9035 39.7833C36.5435 39.4793 36.153 39.2059 35.72 38.9903L28.531 35.3962C27.6021 34.9318 27.0154 33.9825 27.0154 32.9442V30.1236C27.2175 29.8935 27.4485 29.598 27.6955 29.2491C28.6753 27.8651 29.4166 26.3427 29.9302 24.7457C30.8523 24.4612 31.5316 23.6096 31.5316 22.5976V19.5868C31.5316 18.9245 31.2369 18.3327 30.7793 17.9184V13.5661C30.7793 13.5661 31.6734 6.79321 22.501 6.79321C13.3286 6.79321 14.2227 13.5661 14.2227 13.5661V17.9184C13.7642 18.3327 13.4704 18.9245 13.4704 19.5868V22.5976C13.4704 23.3906 13.8873 24.0885 14.5114 24.4918C15.2636 27.7666 17.2335 30.1236 17.2335 30.1236V32.8745C17.2326 33.8764 16.6841 34.7993 15.8036 35.2799Z" fill="#E7ECED"/>
<path d="M22.8846 0.00335051C10.4603 -0.208914 0.215617 9.69109 0.00335273 22.1153C-0.117213 29.16 3.0226 35.4914 8.02184 39.7018C8.34873 39.4166 8.69939 39.155 9.08911 38.9428L15.8026 35.2808C16.6831 34.8002 17.2316 33.8773 17.2316 32.8737V30.1228C17.2316 30.1228 15.2609 27.7658 14.5095 24.491C13.8863 24.0877 13.4685 23.3906 13.4685 22.5967V19.586C13.4685 18.9237 13.7632 18.3319 14.2208 17.9176V13.5653C14.2208 13.5653 13.3267 6.79241 22.4991 6.79241C31.6715 6.79241 30.7774 13.5653 30.7774 13.5653V17.9176C31.2359 18.3319 31.5297 18.9237 31.5297 19.586V22.5967C31.5297 23.6088 30.8504 24.4604 29.9284 24.7449C29.4147 26.3419 28.6734 27.8643 27.6936 29.2483C27.4466 29.5972 27.2156 29.8927 27.0135 30.1228V32.9434C27.0135 33.9817 27.6002 34.9318 28.5291 35.3954L35.7181 38.9895C36.1494 39.2051 36.5391 39.4777 36.8983 39.7808C41.7464 35.7376 44.8785 29.6923 44.9949 22.8846C45.2088 10.4603 35.3097 0.215615 22.8846 0.00335051Z" fill="#556080"/>
</g>
<defs>
<clipPath id="clip0_199_1600">
<rect width="45" height="45" fill="white"/>
</clipPath>
</defs>
</svg>
