<svg width="139" height="54" viewBox="0 0 139 54" fill="none" xmlns="http://www.w3.org/2000/svg">
<g clip-path="url(#clip0_15_2818)">
<mask id="mask0_15_2818" style="mask-type:luminance" maskUnits="userSpaceOnUse" x="0" y="0" width="139" height="54">
<path d="M138.5 0.359375H0.5V53.3594H138.5V0.359375Z" fill="white"/>
</mask>
<g mask="url(#mask0_15_2818)">
<path d="M34.4312 39.6502C31.1151 34.7102 27.0665 30.3446 22.3624 26.7066C21.7841 26.2471 20.8587 26.2853 20.3188 26.8598C19.779 27.4342 19.7405 28.2767 20.2417 28.8894C25.1772 34.8251 28.7245 41.565 30.691 48.9942C30.8838 49.6452 31.4622 50.1047 32.1562 50.1047C32.1948 50.1047 32.2719 50.1047 32.3105 50.1047C33.0816 50.0281 33.6214 49.4154 33.66 48.6878C33.7757 46.0455 34.1227 43.4031 34.6239 40.8374C34.7396 40.4161 34.6625 39.9949 34.4312 39.6502Z" fill="white"/>
<path d="M66.8971 1.39348C66.6658 0.857348 66.0874 0.512695 65.509 0.512695C65.3162 0.512695 65.1234 0.55099 64.9306 0.62758C61.5761 1.9679 58.2986 3.65287 55.2525 5.6442C54.597 6.06545 53.9415 6.52498 53.3246 6.94623C42.1041 14.9882 34.4311 26.783 31.6934 40.1861C31.1536 42.9051 30.8066 45.7006 30.6523 48.4961V48.5727C30.6523 48.6876 30.6523 48.8408 30.6909 48.9556C30.8451 49.4918 30.9608 50.0279 31.115 50.6023C31.1922 50.9853 31.4621 51.3299 31.8091 51.5597L31.9248 51.6363C32.0404 51.7129 32.1561 51.7512 32.2718 51.7895L35.742 52.8617C35.8963 52.9 36.0505 52.9383 36.2047 52.9383C36.5518 52.9383 36.8602 52.8234 37.1301 52.6319C37.5157 52.3256 37.7471 51.866 37.7471 51.4065V51.1001C37.7471 50.7938 37.7471 50.4491 37.7471 50.1428C37.7471 48.7642 37.7856 47.3473 37.9013 45.9686C39.0195 31.991 45.5358 19.2389 56.2936 10.0864C56.7948 9.66516 57.3347 9.20562 57.8745 8.78438L57.913 8.74607C60.4964 6.71645 63.3112 4.9166 66.2416 3.38481C66.9357 2.96357 67.2441 2.12108 66.8971 1.39348Z" fill="white"/>
<path d="M5.08843 41.0668C4.4715 41.0668 3.85457 40.7221 3.5461 40.1477C1.54107 36.2799 0.5 31.9909 0.5 27.6253C0.5 12.6137 12.8386 0.359375 27.9535 0.359375C31.4623 0.359375 34.894 1.01039 38.1714 2.3124C39.0583 2.65706 39.4824 3.65272 39.1354 4.5335C38.7883 5.41428 37.7858 5.83553 36.899 5.49087C34.0457 4.38032 31.0381 3.80591 27.9535 3.80591C14.728 3.80591 3.97024 14.4902 3.97024 27.6253C3.97024 31.4548 4.85708 35.1311 6.63076 38.5393C7.0549 39.3818 6.74644 40.4158 5.89816 40.8753C5.62825 40.9902 5.35834 41.0668 5.08843 41.0668Z" fill="white"/>
<path d="M59.0315 28.9275H58.4146C58.5302 28.9275 58.6072 28.8892 58.7229 28.8892C58.8386 28.8892 58.9544 28.8892 59.0315 28.9275Z" fill="white"/>
<path d="M124.233 43.7093C124.233 43.5561 124.233 43.4029 124.194 43.2881C123.963 41.1053 123.192 39.3054 121.881 37.8119C120.3 36.0503 118.218 35.1313 115.635 35.1313C113.09 35.1313 110.969 36.0121 109.272 37.7736C107.576 39.5352 106.766 41.6797 106.766 44.2454C106.766 46.9644 107.614 49.1472 109.35 50.8321C111.085 52.5171 113.282 53.3596 115.943 53.3596C118.256 53.3596 120.223 52.8618 121.804 51.7895C122.228 51.5214 122.498 51.0619 122.498 50.5258C122.498 50.296 122.421 50.0279 122.344 49.8365L122.112 49.4918C121.842 49.1855 121.418 48.994 120.994 48.994C120.801 48.994 120.57 49.0323 120.416 49.1089C120.3 49.1855 120.146 49.2621 119.992 49.3386C119.683 49.4918 119.413 49.645 119.066 49.7599C118.179 50.1045 117.254 50.2577 116.367 50.2577C114.786 50.2577 113.475 49.7982 112.511 48.8791C111.509 47.96 110.969 46.8112 110.815 45.4709H122.459C123.385 45.4709 124.194 44.6667 124.233 43.7093ZM110.699 42.7902C110.815 41.5648 111.277 40.4925 112.126 39.5735C112.974 38.6544 114.131 38.195 115.635 38.195C117.215 38.195 118.411 38.6544 119.22 39.6118C120.069 40.5308 120.493 41.6031 120.531 42.8285H110.699V42.7902Z" fill="white"/>
<path d="M105.532 37.3908C105.532 37.5057 105.532 37.6589 105.494 37.7738V37.8121L105.417 38.0801C105.417 38.0801 105.417 38.0801 105.417 38.1184L101.484 50.6408L101.291 51.2919C100.867 52.2492 99.9029 52.9002 98.7847 52.9002C97.7436 52.9002 96.8182 52.3258 96.3555 51.4833L96.047 50.526L92.7696 40.1864L89.415 50.6791L89.1837 51.2919C88.7595 52.2492 87.7956 52.9002 86.6774 52.9002C85.6363 52.9002 84.7109 52.3258 84.2482 51.4833L83.9397 50.4877L80.0839 38.1567L79.9682 37.7738C79.9297 37.6589 79.9297 37.544 79.9297 37.3908C79.9297 36.3569 80.778 35.5144 81.819 35.5144C82.6288 35.5144 83.2843 36.0122 83.5542 36.7015L83.6698 37.0462L86.6774 47.3858L86.9087 48.1517L87.1401 47.4241L90.4561 37.3525L90.6489 36.7781C90.9574 36.0888 91.6514 35.591 92.4226 35.4761H93.0395C93.8107 35.591 94.5047 36.0888 94.8132 36.7781L95.006 37.3525L98.322 47.4241L98.5533 48.1517L98.7847 47.3858L101.792 37.0845L101.908 36.6632C102.178 35.9739 102.872 35.5144 103.643 35.5144C104.684 35.5144 105.532 36.3569 105.532 37.3908Z" fill="white"/>
<path d="M83.6313 37.0459L83.5156 36.7012C83.5927 36.8161 83.6313 36.931 83.6313 37.0459Z" fill="white"/>
<path d="M101.792 37.0844C101.792 36.9312 101.87 36.8163 101.908 36.6631L101.792 37.0844Z" fill="white"/>
<path d="M90.6488 36.8164L90.4561 37.3909C90.4946 37.1611 90.5717 37.0079 90.6488 36.8164Z" fill="white"/>
<path d="M93.0398 35.5144H92.4229C92.5385 35.5144 92.6156 35.4761 92.7313 35.4761C92.847 35.5144 92.9241 35.5144 93.0398 35.5144Z" fill="white"/>
<path d="M95.0063 37.3909L94.8135 36.8164C94.8906 37.0079 94.9677 37.1611 95.0063 37.3909Z" fill="white"/>
<path d="M77.5006 30.8039V43.4412C77.5006 46.5048 76.6138 48.9174 74.8401 50.7172C73.0664 52.4788 70.483 53.3979 67.0513 53.3979C63.6197 53.3979 61.0362 52.5171 59.2626 50.7172C57.4889 48.9557 56.6021 46.5431 56.6021 43.4795V30.7273C56.7177 29.77 57.4889 29.0424 58.4528 28.8892H59.0698C60.0337 29.0041 60.8049 29.77 60.9206 30.7273V43.288C60.9206 45.2411 61.4604 46.7729 62.54 47.8834C63.6197 49.0322 65.162 49.5684 67.1285 49.5684C69.0949 49.5684 70.6372 48.994 71.6782 47.8834C72.7579 46.7729 73.2592 45.2028 73.2592 43.288V30.8039C73.3749 29.8083 74.146 29.0424 75.1485 28.9275H75.6498C76.6138 29.0041 77.385 29.8083 77.5006 30.8039Z" fill="white"/>
<path d="M128.899 28.8892C127.896 28.8892 127.048 29.6551 127.009 30.6507V51.0619C127.086 52.0575 127.896 52.8234 128.899 52.8234C129.901 52.8234 130.749 52.0575 130.788 51.0619V30.6507C130.749 29.6934 129.901 28.8892 128.899 28.8892Z" fill="white"/>
<path d="M136.611 28.8892C135.608 28.8892 134.76 29.6551 134.721 30.6507V51.0619C134.798 52.0575 135.608 52.8234 136.611 52.8234C137.613 52.8234 138.461 52.0575 138.5 51.0619V30.6507C138.461 29.6934 137.613 28.8892 136.611 28.8892Z" fill="white"/>
</g>
</g>
<defs>
<clipPath id="clip0_15_2818">
<rect width="139" height="53" fill="white" transform="translate(0 0.359375)"/>
</clipPath>
</defs>
</svg>
