<svg width="94" height="57" viewBox="0 0 94 57" fill="none" xmlns="http://www.w3.org/2000/svg">
<path d="M60.696 20.7227C66.2953 15.3964 72.2683 10.3297 78.903 6.11627C82.4347 3.87308 86.1352 1.90637 89.9713 0.233789L90.4912 0L91.406 3.96002C82.7232 4.48364 74.1006 5.54587 65.7374 7.61924C57.3561 9.63219 49.3339 12.8559 41.6628 16.7615L39.909 11.9453C41.806 11.4771 43.7203 11.0239 45.6729 10.6286C46.6471 10.4305 47.6278 10.2512 48.5742 10.0797C49.5215 9.90751 50.4398 9.73527 51.3622 9.54352C52.7404 9.25912 54.1269 8.93826 55.5174 8.6053L56.5971 8.34919C57.05 8.24583 57.4481 8.17906 57.8484 8.11584C58.6425 7.9906 59.3996 7.90987 60.1627 7.83553C61.683 7.69719 63.188 7.61173 64.7225 7.60035C66.3413 7.56117 67.9603 7.66759 69.56 7.91833C70.1101 8.01219 70.6159 8.27903 71.0035 8.67994C71.3911 9.08084 71.6402 9.59486 71.7147 10.1471C71.7891 10.6992 71.6849 11.2607 71.4173 11.7497C71.1497 12.2386 70.7326 12.6294 70.2269 12.8651L70.1934 12.8803C65.5065 15.0292 60.8987 17.3489 56.3455 19.7724C51.8091 22.2273 47.3385 24.8004 42.9336 27.4915C40.7521 28.8684 38.5534 30.2198 36.4084 31.6543C34.2457 33.0622 32.1473 34.5647 30.0267 36.0341C25.8296 39.0365 21.7161 42.15 17.6864 45.3747C16.1547 46.6432 14.5653 47.8568 13.0073 49.1011C12.2256 49.7203 11.4455 50.3383 10.6672 50.955C9.87882 51.5596 9.10866 52.1806 8.34332 52.7994C5.38885 55.1435 3.22721 56.3989 1.58868 56.8762C0.400019 57.2272 0.0130034 56.8176 0.398996 55.8276C0.790942 54.8453 1.92978 53.2514 3.85357 51.3311C4.46441 50.7263 5.09775 50.116 5.74628 49.5047C6.39331 48.8918 7.05715 48.2796 7.74538 47.6897C8.43179 47.0978 9.12601 46.5095 9.82078 45.9286L10.8621 45.0634C11.2152 44.7851 11.5663 44.5082 11.9153 44.2328C18.3319 39.1548 24.9036 34.3099 31.6307 29.6983C38.3528 25.0797 45.2244 20.682 52.2455 16.5052C54.1723 15.3324 56.1792 14.206 58.1698 13.0793C59.1691 12.5232 60.1838 12.0045 61.1873 11.4891C62.1934 10.979 63.1919 10.4789 64.196 10.034L68.033 8.28685L68.6225 12.9055C67.5754 12.7152 66.5141 12.6129 65.4498 12.5997C64.3165 12.5698 63.1576 12.5929 62.0041 12.6555C60.8533 12.7196 59.6921 12.8226 58.6034 12.9812C58.464 12.9991 58.3377 13.0231 58.2074 13.045C58.0772 13.067 57.944 13.0885 57.8342 13.1143C57.6308 13.1537 57.3063 13.2321 57.0127 13.3014L55.2267 13.7186C54.0328 13.9924 52.8283 14.2578 51.6121 14.4978C50.3946 14.7412 49.1832 14.9486 48.0207 15.1656C45.7008 15.594 43.3955 16.1274 41.064 16.6869L41.0184 16.6979C40.4645 16.8309 39.8809 16.7542 39.3805 16.4825C38.88 16.2108 38.4982 15.7635 38.3091 15.227C38.1199 14.6906 38.1367 14.1032 38.3563 13.5785C38.5759 13.0537 38.9826 12.6289 39.4978 12.3862C42.1431 11.1395 44.8113 9.93967 47.5474 8.90592C52.4666 7.00335 57.4932 5.39033 62.6015 4.07517C67.7056 2.76904 72.8889 1.79357 78.119 1.15487C82.4697 0.612694 86.8316 0.267225 91.1861 0.0498424L91.2107 0.0485656C91.6477 0.026944 92.0782 0.160162 92.4264 0.424694C92.7745 0.689225 93.0178 1.06805 93.1133 1.49427C93.2088 1.92049 93.1503 2.36669 92.9482 2.75406C92.7462 3.14142 92.4134 3.44505 92.0089 3.61131C85.6609 6.21683 79.7755 9.96286 74.3197 14.2709C68.8535 18.582 63.7857 23.4412 58.8665 28.4697L58.1295 29.2181L58.0966 29.2514C57.8427 29.5092 57.5029 29.6652 57.1415 29.6897C56.7802 29.7142 56.4224 29.6055 56.1358 29.3843C55.8493 29.1631 55.654 28.8447 55.5869 28.4894C55.5198 28.1341 55.5856 27.7666 55.7718 27.4564C56.7006 25.9086 57.6906 24.4739 58.6968 23.0947C59.7013 21.7154 60.7345 20.4048 61.775 19.1469C62.8137 17.8877 63.8537 16.6776 64.8949 15.5163C65.9208 14.3451 66.9957 13.2574 67.99 12.1594C68.9601 11.1051 69.5131 10.6703 69.6824 10.9065C69.8395 11.1331 69.6323 12.0536 68.9315 13.5904C68.6776 14.1291 68.4224 14.6709 68.1657 15.2159C67.8945 15.7507 67.5607 16.2431 67.2562 16.759C66.6272 17.7726 65.9935 18.7937 65.3551 19.8221C64.0785 21.8432 62.7887 23.8852 61.5022 25.9221C60.7587 27.114 60.0036 28.3071 59.3141 29.4975L55.1696 26.4009C56.9751 24.5173 58.8483 22.6499 60.7237 20.8024C60.7148 20.7769 60.7066 20.753 60.696 20.7227Z" fill="#07286E"/>
</svg>
