<svg width="50" height="70" viewBox="0 0 50 70" fill="none" xmlns="http://www.w3.org/2000/svg">
<path d="M30.971 45.1591C35.9429 49.8857 40.5773 54.7579 44.1856 59.779C46.1067 62.4518 47.7021 65.1464 48.9574 67.8385L49.1352 68.2053L44.6907 67.6429C45.3997 62.4508 45.5137 57.1449 44.489 51.7104C43.5327 46.2821 41.2059 40.7279 38.0853 35.1895L43.5851 35.5008C43.8153 36.7329 44.0265 37.9709 44.1691 39.2152C44.2413 39.8362 44.2919 40.4559 44.3392 41.0534C44.3871 41.6516 44.4392 42.2331 44.5121 42.8223C44.6186 43.702 44.7636 44.5966 44.9211 45.497L45.0408 46.1954C45.0866 46.4872 45.1006 46.7371 45.1105 46.9872C45.1298 47.4835 45.1062 47.9459 45.0747 48.41C45.0013 49.332 44.8727 50.2305 44.6591 51.1256C44.4633 52.0775 44.109 52.9892 43.6005 53.8498C43.4173 54.1437 43.0524 54.364 42.559 54.4785C42.0656 54.5931 41.4695 54.5959 40.8576 54.4866C40.2457 54.3773 39.6499 54.1615 39.1573 53.8709C38.6646 53.5802 38.3007 53.2297 38.1186 52.8706L38.1071 52.847C36.4587 49.5286 34.6129 46.2091 32.6459 42.8926C30.6424 39.5773 28.5006 36.2675 26.2205 32.9633C25.0433 31.3147 23.8965 29.6632 22.6512 28.0198C21.4375 26.3736 20.1114 24.7386 18.8246 23.0999C16.1752 19.8304 13.3926 16.5789 10.4766 13.3453C9.32171 12.1045 8.23507 10.8452 7.11037 9.59571C6.55154 8.97013 5.99388 8.34593 5.43738 7.72309C4.8955 7.09773 4.33312 6.47844 3.77234 5.86254C1.65639 3.49736 0.60851 1.89389 0.330416 0.809514C0.123479 0.0215453 0.62622 -0.0902577 1.64683 0.40769C2.65815 0.906961 4.22511 2.00942 6.03162 3.65834C6.59984 4.18054 7.17074 4.71734 7.74047 5.26324C8.3123 5.80875 8.88069 6.36378 9.42141 6.92688C9.96445 7.48944 10.5025 8.05556 11.0323 8.61995L11.8205 9.46436C12.0714 9.74652 12.321 10.0271 12.5694 10.3061C17.1508 15.4393 21.4555 20.5982 25.4837 25.783C29.52 30.9668 33.294 36.1765 36.8055 41.4121C37.798 42.8562 38.7284 44.3341 39.6614 45.8026C40.1194 46.5371 40.5344 47.2703 40.9475 47.9961C41.3546 48.7219 41.7518 49.4405 42.0881 50.1471L43.4243 52.8604L38.311 51.9269C38.6724 51.3707 38.94 50.782 39.1111 50.167C39.3105 49.5165 39.4561 48.8364 39.5578 48.1486C39.6576 47.4619 39.7165 46.7584 39.7042 46.0817C39.7053 45.9957 39.6979 45.9157 39.6931 45.8339C39.6884 45.7522 39.6846 45.6688 39.6727 45.5978C39.6598 45.4687 39.6223 45.2584 39.5901 45.0686L39.3992 43.9151C39.277 43.1454 39.1655 42.3719 39.0834 41.5985C38.9979 40.8236 38.9506 40.062 38.8857 39.3263C38.7611 37.8594 38.5202 36.3719 38.2546 34.862L38.2494 34.8324C38.1862 34.4737 38.3557 34.1557 38.7251 33.9398C39.0945 33.724 39.6375 33.6256 40.2492 33.6639C40.8608 33.7021 41.4976 33.8742 42.0364 34.1469C42.5751 34.4195 42.9775 34.7733 43.1658 35.1399C44.133 37.0221 45.0458 38.9047 45.7678 40.7809C47.1139 44.1661 48.129 47.5339 48.8079 50.8668C49.4776 54.1948 49.7758 57.4774 49.7006 60.6942C49.6499 63.3731 49.3834 66.0042 48.9786 68.5955L48.9764 68.6102C48.9356 68.8702 48.7272 69.0836 48.388 69.2129C48.0488 69.3422 47.6007 69.3789 47.1228 69.3167C46.6449 69.2544 46.1679 69.0971 45.7761 68.8726C45.3842 68.6481 45.1028 68.3708 44.9815 68.0897C43.0808 63.6796 39.8708 59.2233 35.9859 54.8614C32.0992 50.4926 27.5573 46.204 22.8092 41.9549L22.1033 41.3197L22.072 41.2914C21.8287 41.0725 21.7091 40.8319 21.7356 40.615C21.7621 40.3982 21.9331 40.2202 22.216 40.1148C22.499 40.0094 22.8743 39.9838 23.2708 40.043C23.6674 40.1022 24.0577 40.242 24.3678 40.4359C25.9156 41.4035 27.3311 42.3755 28.6839 43.3415C30.0371 44.3065 31.3113 45.2693 32.527 46.2217C33.7443 47.1734 34.9082 48.1124 36.0186 49.0385C37.1421 49.9585 38.1677 50.884 39.2161 51.7653C40.2207 52.6206 40.6124 53.0622 40.3304 53.0953C40.0606 53.124 39.0894 52.7492 37.5201 51.9172C36.9713 51.6208 36.4192 51.3227 35.8639 51.0229C35.3218 50.7175 34.8351 50.3874 34.3184 50.0678C33.3079 49.4221 32.2901 48.7716 31.2648 48.1163C29.2533 46.8157 27.2209 45.5017 25.1936 44.191C24.006 43.4294 22.8187 42.6608 21.6248 41.9311L25.6052 40.3775C27.3892 41.9475 29.1457 43.5525 30.8801 45.1531C30.9091 45.155 30.9364 45.1568 30.971 45.1591Z" fill="#07286E"/>
</svg>
