<svg xmlns="http://www.w3.org/2000/svg" version="1.0" viewBox="0 0 1123 663"><path fill="#07286E" d="M10.1 1C.6 3-1.8 7.2 2.4 14.4c7.3 12.4 38.1 31.9 76.1 47.9 22.8 9.6 104.8 43.5 141 58.2 84.2 34.3 143.6 61 219 98.5C562.6 280.7 683 353.3 801.7 438c5.1 3.6 9.1 6.6 9 6.7-.1.1-3.8-.7-8.2-1.7-16.7-3.9-58.9-12.2-80.5-16-14.2-2.4-29.2-5.8-40.5-9-25.1-7.2-57.8-16.1-58.1-15.7-.2.2-1.5 2.8-2.8 5.9l-2.5 5.7-7.3-.1c-5.5-.1-8.6.5-12.3 2.1-11.4 5.1-17.3 15.8-13.1 24 1.8 3.5 4.9 5.5 10.7 7.2 2.4.7 4.5 1.4 4.7 1.5.2.1-.8 2.5-2.2 5.3-1.4 2.8-2.6 5.2-2.6 5.5 0 .8 7.2 1.4 34.5 3.2 29.7 1.9 28.7 1.7 85.5 19.4 112.6 35.2 200.5 72.2 271 114.3 27.3 16.3 67.7 44.5 77.2 53.9 2.1 2.1 3.8 3.5 3.8 3.2 0-.3 1.7.9 3.7 2.6 6.3 5.6 11.5 7.3 20.2 6.8 16.9-1 30.2-12 30.1-24.9-.1-4.4-2.7-13.6-4.7-16.1-.5-.7-4.9-9.9-9.7-20.3-10.9-23.5-29.2-59.5-42.7-83.7-48.5-87.1-100.8-156.3-173.8-230.1-36.8-37.2-63.3-61.3-96.2-87.4-10.2-8.2-20.2-17-22.3-19.6-2.8-3.5-4.4-4.7-5.8-4.4-1.1.3-3.9-.8-6.8-2.8-13.5-9.1-35.9-5.7-48.8 7.2-6.6 6.7-8.7 11.3-8.7 19.4 0 5.9.4 7.2 3.3 11.2 1.8 2.6 2.9 5.2 2.6 6-.4 1.1.8 2.5 3.6 4.4 5.1 3.3 25.4 30 49.2 64.8 20.3 29.7 25.4 36.6 56.2 76.4.6.8-2.7-1-7.4-3.9-37.6-23.6-69.3-42.4-120-71.2C539.3 202 372.8 120.8 215 56 150 29.3 87 9.1 50 3 35.4.6 16.4-.3 10.1 1zm938.4 447.5c16 21.7 36.1 52.2 52.1 78.9 7.3 12.1 13.1 22.2 13 22.4-.2.1-7.2-3.6-15.7-8.4-19.7-11-63.5-32.8-85.1-42.4l-16.8-7.4 5-1.3c16.6-4.2 32-20 32-32.8 0-6.6-4.7-29.9-7.7-38.2-.9-2.5 9.3 10.3 23.2 29.2z"/></svg>