<svg width="80" height="73" viewBox="0 0 80 73" fill="none" xmlns="http://www.w3.org/2000/svg">
<path d="M48.3216 34.2601C52.0286 26.5252 56.8398 19.3474 62.6103 12.943C65.6412 9.54907 68.9132 6.36967 72.4016 3.42856C73.0612 2.88441 73.6998 2.31734 74.3767 1.79289L76.4171 0.233752L78.2705 3.4574C75.9086 4.1891 73.6274 5.1193 71.3277 5.99366C69.0344 6.88304 66.7378 7.75769 64.4662 8.68778C59.9193 10.5351 55.4036 12.434 50.9751 14.4849C46.5505 16.5414 42.2019 18.7285 38.0064 21.1269C33.8252 23.4824 29.8262 26.1361 26.0417 29.0667L23.3611 24.9148C24.4713 24.3455 25.5871 23.7829 26.7086 23.2272C27.83 22.6701 28.9579 22.1176 30.0923 21.5697C32.2527 20.5239 34.4452 19.5104 36.6728 18.5492C38.8991 17.586 41.1628 16.674 43.4804 15.863C45.8096 15.0501 48.179 14.3526 50.5797 13.7732C51.1782 13.615 51.7928 13.5036 52.3986 13.3672L53.3107 13.1728L54.2317 13.0089C55.4687 12.8406 56.7171 12.745 57.9529 12.5748C58.4928 12.5006 59.0425 12.6034 59.5166 12.8673C59.9908 13.1311 60.3627 13.5412 60.5746 14.0338C60.7865 14.5264 60.8265 15.0739 60.6883 15.5911C60.5502 16.1083 60.2417 16.5662 59.8107 16.8936L59.788 16.9103C55.8714 19.8755 51.9918 22.8937 48.2165 26.0373C44.476 29.219 40.7713 32.4461 37.2179 35.8309C30.0737 42.5604 23.2681 49.6135 16.8012 56.9903L12.4222 61.8896C10.9688 63.53 9.52371 65.1609 8.08683 66.7823C6.95121 68.0919 5.74425 69.3403 4.47122 70.522C3.64039 71.3149 2.72959 72.0231 1.75285 72.6355C0.624035 73.3127 0.229054 73.025 0.533724 71.949C0.781603 71.1912 1.10971 70.4609 1.51267 69.77C2.12453 68.6667 2.80418 67.6009 3.54786 66.5785C4.09259 65.8137 4.65632 65.0391 5.23904 64.2548C5.82013 63.4731 6.44609 62.7098 7.06383 61.9348C7.68668 61.1641 8.31148 60.3895 8.94922 59.6316C9.5969 58.8816 10.2394 58.1378 10.8767 57.4002C12.334 55.7017 13.8529 54.0566 15.3369 52.3839L17.6191 49.9242C18.381 49.1058 19.135 48.2807 19.9137 47.478L22.2285 45.0518C22.9977 44.2411 23.7917 43.4536 24.5705 42.6523C26.1231 41.0448 27.7207 39.4812 29.3031 37.9031C30.0881 37.1083 30.9061 36.3458 31.705 35.5646C32.5118 34.7913 33.3024 34.0016 34.1201 33.2394C35.7508 31.7105 37.3658 30.1651 39.0213 28.6616C42.278 25.5959 45.6565 22.6615 48.9854 19.6622L52.8053 16.327C54.1044 15.2312 55.4096 14.1385 56.7141 13.076L58.5518 17.4174C58.1714 17.477 57.7925 17.5363 57.4149 17.5953C57.0392 17.666 56.6648 17.729 56.2936 17.8068C55.9236 17.8934 55.552 17.9598 55.1881 18.0553C54.8176 18.1178 54.4469 18.163 54.0812 18.2366C51.6042 18.6753 49.1598 19.2756 46.7643 20.0334C44.3488 20.7855 41.9466 21.6368 39.5749 22.5978C34.826 24.5172 30.1836 26.8027 25.4953 29.0748L25.46 29.0919C24.9636 29.3325 24.3937 29.3833 23.8612 29.2342C23.3288 29.0851 22.872 28.747 22.5799 28.2856C22.2878 27.8243 22.1813 27.2728 22.2812 26.7386C22.3811 26.2045 22.6803 25.7259 23.1203 25.3963C27.1743 22.393 31.4687 19.7152 35.9616 17.389C41.0945 14.7084 46.3516 12.3016 51.6629 10.0524C56.967 7.78589 62.3448 5.72048 67.7134 3.69876L72.3597 1.95849L74.6808 1.09176L76.9642 0.134937C77.3441 -0.024064 77.7699 -0.0432106 78.1631 0.0810166C78.5563 0.205244 78.8906 0.464495 79.1045 0.811117C79.3184 1.15774 79.3975 1.56843 79.3274 1.96771C79.2572 2.36699 79.0425 2.72801 78.7226 2.98442L78.6401 3.04987C77.8607 3.67254 77.0976 4.31355 76.3138 4.92956L74.0427 6.87574L71.841 8.89991C71.1365 9.60506 70.406 10.2844 69.6986 10.9868C66.8805 13.8142 64.2542 16.8195 61.8366 19.9836C56.9615 26.2847 53.0608 33.2565 50.2602 40.6741L50.2458 40.7133C50.1102 41.0816 49.8342 41.3839 49.476 41.5567C49.1178 41.7295 48.7052 41.7594 48.325 41.64C47.9448 41.5206 47.6266 41.2612 47.4374 40.9165C47.2482 40.5717 47.2026 40.1684 47.3103 39.7914C47.5108 39.0904 47.6961 38.3842 47.9092 37.6879C49.021 33.9264 50.414 30.2504 52.0768 26.6897C53.5776 23.4269 55.2875 20.2606 57.1964 17.2097C58.0225 15.88 58.5438 15.3218 58.7501 15.5361C58.9471 15.7463 58.8746 16.7488 58.413 18.4917C58.2337 19.1009 58.0535 19.7137 57.8723 20.3301C57.6858 20.9429 57.457 21.5414 57.2504 22.1515C56.836 23.3684 56.4186 24.5944 55.998 25.8294C55.1739 28.2977 54.3687 30.7929 53.6273 33.2877C52.8905 35.7863 52.0602 38.2891 51.3655 40.8242L46.3079 39.3109L47.3017 36.7971C47.6403 35.9633 48.0223 35.1504 48.376 34.3275C48.357 34.3058 48.3398 34.2852 48.3216 34.2601Z" fill="#07286E"/>
</svg>
